{"title":"How_They_Dug_the_Victoria_Line-1969.mp4","uid":10646869,"size":433378244,"categoryP":"video","categoryS":"tv_shows","magnet":"?xt=urn:btih:f9f237022af226ba456b2ba46111a7b59cc7e543&amp;dn=How_They_Dug_the_Victoria_Line-1969.mp4&amp;tr=udp%3A%2F%2Ftracker.openbittorrent.com%3A80&amp;tr=udp%3A%2F%2Fopen.demonii.com%3A1337&amp;tr=udp%3A%2F%2Ftracker.coppersurfer.tk%3A6969&amp;tr=udp%3A%2F%2Fexodus.desync.com%3A6969","seeders":1,"leechers":1,"uploader":"snippersniffer","files":1,"time":1406557539,"description":"\nHow They Dug the Victoria Line\n\nFirst transmitted in 1969, this documentary follows the construction of the world?s most advanced underground system. Macdonald Hastings narrates the story of one of the most complex tunnel engineering feats of its time. He reveals the isolation felt by the miners who spent six years burrowing deep beneath the streets of London, shows what they did beneath one of London's most famous department stores and explains why the ground at Tottenham Court Road had to be frozen during the hottest weeks of 1966. The result is a brave new world of transport with automated trains, two way mirrors, automatic fare collection and closed-circuit television, all choreographed by a computer programme played out by an updated version of a pianola located in a control room somewhere near Euston station.\n\nVideo: MPEG4 Video (H264) 480x360 25fps 1367kbps [V: h264 main L2.1, yuv420p, 480x360, 1367 kb/s]\n\nAudio: AAC 48000Hz stereo 106kbps [A: SoundHandler (aac, 48000 Hz, stereo, 106 kb/s)]\n\nDetailed Video Information:-\n\nGeneral\nFormat                         : MPEG-4\nFormat profile                 : Base Media\nCodec ID                       : isom\nFile size                      : 413 MiB\nDuration                       : 39mn 3s\nOverall bit rate               : 1 479 Kbps\nCollection                     : How They Dug the Victoria Line\nSeason                         : 1\nAlbum                          : How They Dug the Victoria Line\nAlbum/Performer                : BBC TV\nPart                           : 1\nPart/Position                  : 1\nTrack name                     : How They Dug the Victoria Line\nTrack name/Position            : 1\nGrouping                       : Factual\nPerformer                      : BBC Two\nComposer                       : BBC iPlayer\nGenre                          : Factual\nContentType                    : TV Show\nDescription                    : The inside story of the construction of the London Underground's Victoria Line. (1969)\nRecorded date                  : 2012-08-22T10:43:52+01:00\nTagged date                    : UTC 2014-07-28 11:32:03\nWriting application            : Lavf54.63.104\nCopyright                      : Â© 2014 British Broadcasting Corporation, all rights reserved\nCover                          : Yes\nComment                        : The inside story of the construction of the London Underground's Victoria Line. (1969)\nPart_ID                        : s01e01\nTVNetworkName                  : BBC Two\n\nVideo\nID                             : 1\nFormat                         : AVC\nFormat/Info                    : Advanced Video Codec\nFormat profile                 : &lt;a class=&quot;__cf_email__&quot; href=&quot;/cdn-cgi/l/email-protection&quot; data-cfemail=&quot;783519111638344a5649&quot;&gt;[email&amp;#160;protected]&lt;/a&gt;&lt;script cf-hash='f9e31' type=&quot;text/javascript&quot;&gt;\n/* &lt;![CDATA[ */!function(){try{var t=&quot;currentScript&quot;in document?document.currentScript:function(){for(var t=document.getElementsByTagName(&quot;script&quot;),e=t.length;e--;)if(t[e].getAttribute(&quot;cf-hash&quot;))return t[e]}();if(t&amp;&amp;t.previousSibling){var e,r,n,i,c=t.previousSibling,a=c.getAttribute(&quot;data-cfemail&quot;);if(a){for(e=&quot;&quot;,r=parseInt(a.substr(0,2),16),n=2;a.length-n;n+=2)i=parseInt(a.substr(n,2),16)^r,e+=String.fromCharCode(i);e=document.createTextNode(e),c.parentNode.replaceChild(e,c)}}}catch(u){}}();/* ]]&gt; */&lt;/script&gt;\nFormat settings, CABAC         : No\nFormat settings, ReFrames      : 2 frames\nCodec ID                       : avc1\nCodec ID/Info                  : Advanced Video Coding\nDuration                       : 39mn 3s\nBit rate                       : 1 368 Kbps\nWidth                          : 480 pixels\nHeight                         : 360 pixels\nDisplay aspect ratio           : 4:3\nFrame rate mode                : Constant\nFrame rate                     : 25.000 fps\nColor space                    : YUV\nChroma subsampling             : 4:2:0\nBit depth                      : 8 bits\nScan type                      : Progressive\nBits/(Pixel*Frame)             : 0.317\nStream size                    : 382 MiB (92%)\nColor primaries                : BT.601 NTSC\nTransfer characteristics       : BT.709\nMatrix coefficients            : BT.601\n\nAudio\nID                             : 2\nFormat                         : AAC\nFormat/Info                    : Advanced Audio Codec\nFormat profile                 : LC\nCodec ID                       : 40\nDuration                       : 39mn 3s\nBit rate mode                  : Constant\nBit rate                       : 107 Kbps\nChannel(s)                     : 2 channels\nChannel positions              : Front: L R\nSampling rate                  : 48.0 KHz\nCompression mode               : Lossy\nStream size                    : 29.9 MiB (7%)\n\n","torrent":{"xt":"urn:btih:f9f237022af226ba456b2ba46111a7b59cc7e543","amp;dn":"How_They_Dug_the_Victoria_Line-1969.mp4","amp;tr":["udp%3A%2F%2Ftracker.openbittorrent.com%3A80","udp%3A%2F%2Fopen.demonii.com%3A1337","udp%3A%2F%2Ftracker.coppersurfer.tk%3A6969","udp%3A%2F%2Fexodus.desync.com%3A6969"],"infoHash":"f9f237022af226ba456b2ba46111a7b59cc7e543","infoHashBuffer":{"type":"Buffer","data":[249,242,55,2,42,242,38,186,69,107,43,164,97,17,167,181,156,199,229,67]},"announce":[],"urlList":[]}}